<svg id="Layer_1" data-name="Layer 1" xmlns="http://www.w3.org/2000/svg" xmlns:xlink="http://www.w3.org/1999/xlink" viewBox="0 0 345.67 137.33"><defs><style>.cls-1{fill:url(#linear-gradient);}.cls-2{fill:#fff;}.cls-3{fill:#3c5e2c;}</style><linearGradient id="linear-gradient" x1="21.73" y1="94.37" x2="113.92" y2="45.35" gradientUnits="userSpaceOnUse"><stop offset="0" stop-color="#738b67"/><stop offset="1" stop-color="#3c5e2c"/></linearGradient></defs><title>Artboard 1</title><path class="cls-1" d="M112.36,43,68.79,17.88a2,2,0,0,0-1.93,0L23.29,43a1.93,1.93,0,0,0-1,1.66V95a1.93,1.93,0,0,0,1,1.67l43.57,25.16a2,2,0,0,0,1.93,0l43.57-25.16a1.93,1.93,0,0,0,1-1.67V44.7A1.93,1.93,0,0,0,112.36,43Z"/><path class="cls-2" d="M65.83,42.52a25,25,0,1,0,25,25A25,25,0,0,0,65.83,42.52Zm0,49.41A24.41,24.41,0,1,1,90.24,67.52,24.41,24.41,0,0,1,65.83,91.93Z"/><path class="cls-2" d="M67.82,44.86a25,25,0,1,0,25,25A25,25,0,0,0,67.82,44.86Zm0,43.82A18.83,18.83,0,1,1,86.65,69.86,18.82,18.82,0,0,1,67.82,88.68Z"/><path class="cls-2" d="M67,49.87A18.84,18.84,0,1,0,85.86,68.71,18.84,18.84,0,0,0,67,49.87ZM67,87.1a18.4,18.4,0,1,1,18.4-18.39A18.4,18.4,0,0,1,67,87.1Z"/><path class="cls-3" d="M155.62,41.41,145.23,73.89h10.39V78H141V73.89l10.32-32.48H141V37.35h14.62Z"/><path class="cls-3" d="M171.68,41.41V53.53h8.47v4.06h-8.47v16.3h10.56V78H167.62V37.35h14.62v4.06Z"/><path class="cls-3" d="M209.18,38.71A4.48,4.48,0,0,1,210.54,42V53a4.64,4.64,0,0,1-4.64,4.64h-1.39l6,20.3h-4.35l-7-24.36h6.73a.51.51,0,0,0,.58-.58V42a.51.51,0,0,0-.58-.58h-7.6V78h-4.06V37.35H205.9A4.5,4.5,0,0,1,209.18,38.71Z"/><path class="cls-3" d="M235,37.29a4.63,4.63,0,0,1,2.78,1.57,4.45,4.45,0,0,1,1.1,3V73.36a4.43,4.43,0,0,1-1.1,3A4.53,4.53,0,0,1,235,78h-8.53a4.53,4.53,0,0,1-2.78-1.57,4.43,4.43,0,0,1-1.1-3V41.88a4.45,4.45,0,0,1,1.1-3,4.63,4.63,0,0,1,2.78-1.57Zm-.18,4.64c0-.38-.17-.58-.52-.58h-7.07a.51.51,0,0,0-.58.58V73.31a.51.51,0,0,0,.58.58h7.07c.35,0,.52-.19.52-.58Z"/><path class="cls-3" d="M262.39,37.41a4.41,4.41,0,0,1,3.28,1.39A4.56,4.56,0,0,1,267,42.1V73.38a4.39,4.39,0,0,1-1.36,3.21A4.46,4.46,0,0,1,262.39,78H250.85V53.63h4.06l-4.06-12.17V37.41Zm.58,4.64a.51.51,0,0,0-.58-.58h-7.48V73.89h7.48c.39,0,.58-.17.58-.52Z"/><path class="cls-3" d="M283.1,78H279V37.35h4.06Z"/><path class="cls-3" d="M313.66,37.35,307.17,78H301.6l-6.5-40.6h4.12l5.16,32.48,5.16-32.48Z"/><path d="M143.26,100.75H142V88.15h1.26Z"/><path d="M149.76,89.41H148v11.34h-1.26V89.41H145V88.15h4.79Z"/><path d="M151.47,95.35V94.09H156v1.26Z"/><path d="M162.84,98v1.35a1.39,1.39,0,0,1-.33.93,1.37,1.37,0,0,1-.85.49H159a1.42,1.42,0,0,1-.87-.49,1.4,1.4,0,0,1-.34-.93V89.55a1.4,1.4,0,0,1,.34-.93,1.42,1.42,0,0,1,.87-.49h2.63a1.37,1.37,0,0,1,.85.49,1.39,1.39,0,0,1,.33.93V90.9h-1.26V89.57c0-.12-.05-.18-.16-.18h-2.16a.16.16,0,0,0-.18.18v9.74a.16.16,0,0,0,.18.18h2.16c.11,0,.16-.06.16-.18V98Z"/><path d="M168.41,88.13a1.42,1.42,0,0,1,.86.49,1.35,1.35,0,0,1,.34.93v9.78a1.35,1.35,0,0,1-.34.93,1.42,1.42,0,0,1-.86.49h-2.65a1.46,1.46,0,0,1-1.21-1.42V89.55a1.46,1.46,0,0,1,1.21-1.42Zm-.06,1.44c0-.12,0-.18-.16-.18H166a.16.16,0,0,0-.18.18v9.74a.16.16,0,0,0,.18.18h2.2c.11,0,.16-.06.16-.18Z"/><path d="M176.36,88.15v12.6h-1.29l-2.49-8.32v8.32h-1.26V88.15h1.26v0l2.52,8.31V88.15Z"/><path d="M181.65,90.9V89.57a.16.16,0,0,0-.18-.18h-2a.16.16,0,0,0-.18.18V93a.15.15,0,0,0,.11.16h2a1.4,1.4,0,0,1,1,.42,1.38,1.38,0,0,1,.41,1v4.72a1.35,1.35,0,0,1-.34.93,1.4,1.4,0,0,1-.86.49h-2.43a1.42,1.42,0,0,1-.87-.49,1.4,1.4,0,0,1-.34-.93V98h1.26v1.33a.16.16,0,0,0,.18.18h2a.16.16,0,0,0,.18-.18V94.59a.15.15,0,0,0-.1-.16h-2A1.43,1.43,0,0,1,178.07,93V89.56a1.44,1.44,0,0,1,1.21-1.43h2.43a1.4,1.4,0,0,1,.86.49,1.35,1.35,0,0,1,.34.93V90.9Z"/><path d="M189.63,88.17V99.33a1.44,1.44,0,0,1-1.19,1.42h-2.61a1.42,1.42,0,0,1-.87-.49,1.4,1.4,0,0,1-.34-.93V88.17h1.26V99.31a.16.16,0,0,0,.18.18h2.15c.1,0,.16-.06.16-.18V88.17Z"/><path d="M195.87,99.49v1.26h-4.53V88.15h1.26V99.49Z"/><path d="M202.39,89.41h-1.76v11.34h-1.26V89.41H197.6V88.15h4.79Z"/><path d="M205.36,100.75H204.1V88.15h1.26Z"/><path d="M212.11,88.15v12.6h-1.3l-2.48-8.32v8.32h-1.26V88.15h1.26v0l2.52,8.31V88.15Z"/><path d="M218.84,94.43v4.9a1.35,1.35,0,0,1-.34.93,1.42,1.42,0,0,1-.87.49H215a1.42,1.42,0,0,1-.86-.49,1.35,1.35,0,0,1-.34-.93V89.55a1.35,1.35,0,0,1,.34-.93,1.42,1.42,0,0,1,.86-.49h2.61a1.42,1.42,0,0,1,.87.49,1.35,1.35,0,0,1,.34.93v1.32h-1.26v-1.3a.16.16,0,0,0-.18-.18h-2.14a.16.16,0,0,0-.18.18v9.74a.16.16,0,0,0,.18.18h2.14a.16.16,0,0,0,.18-.18V94.43h-1.49V93.17h2.75Z"/><path d="M230.11,94.47h-1v6.28h-3.8a1.38,1.38,0,0,1-.91-.46,1.36,1.36,0,0,1-.37-1V94.64a.91.91,0,0,1,0-.17,1.43,1.43,0,0,1,0-.16,1.38,1.38,0,0,1,.72-.46,1.47,1.47,0,0,1-.72-.47,1.22,1.22,0,0,1,0-.17,1.09,1.09,0,0,1,0-.18V89.59a1.4,1.4,0,0,1,.42-1,1.39,1.39,0,0,1,1-.42h2.2a1.45,1.45,0,0,1,1.42,1.44v1.24h-1.26V89.59c0-.12-.06-.18-.16-.18h-2.2a.16.16,0,0,0-.18.18V93c0,.11.06.17.18.17h4.61Zm-2.41,5a.18.18,0,0,0,.16-.11v-4.8a.17.17,0,0,0-.16-.11h-2.2c-.12,0-.18,0-.18.16v4.7c0,.1.06.16.18.16Z"/><path d="M239,88.17a1.38,1.38,0,0,1,1,.43,1.42,1.42,0,0,1,.42,1v9.71a1.43,1.43,0,0,1-1.44,1.42h-3.58V93.2h1.26l-1.26-3.78V88.17Zm.18,1.44a.16.16,0,0,0-.18-.18h-2.32V99.49H239c.12,0,.18-.06.18-.16Z"/><path d="M243.41,89.41v3.76H246v1.26h-2.63v5.06h3.28v1.26h-4.54V88.15h4.54v1.26Z"/><path d="M254.16,88.15l-2,12.6h-1.73l-2-12.6h1.27l1.61,10.08,1.6-10.08Z"/><path d="M257,89.41v3.76h2.62v1.26H257v5.06h3.27v1.26h-4.53V88.15h4.53v1.26Z"/><path d="M266.56,99.49v1.26H262V88.15h1.26V99.49Z"/><path d="M272.14,88.13a1.42,1.42,0,0,1,.86.49,1.35,1.35,0,0,1,.34.93v9.78a1.35,1.35,0,0,1-.34.93,1.42,1.42,0,0,1-.86.49h-2.65a1.37,1.37,0,0,1-.86-.49,1.35,1.35,0,0,1-.34-.93V89.55a1.35,1.35,0,0,1,.34-.93,1.37,1.37,0,0,1,.86-.49Zm-.06,1.44c0-.12-.05-.18-.16-.18h-2.2a.16.16,0,0,0-.18.18v9.74a.16.16,0,0,0,.18.18h2.2c.11,0,.16-.06.16-.18Z"/><path d="M278.67,88.15a1.43,1.43,0,0,1,1.44,1.44V93a1.42,1.42,0,0,1-.42,1,1.39,1.39,0,0,1-1,.42h-2.36v6.3h-1.26V88.15h3.62Zm.18,1.44a.16.16,0,0,0-.18-.18h-2.36v3.78h2.36a.16.16,0,0,0,.18-.18Z"/><path d="M288.86,88.15v12.6H287.6v-9l-1.41,8h-1.71l-1.4-8v9h-1.26V88.15h1.93l1.6,9.32,1.6-9.32Z"/><path d="M291.83,89.41v3.76h2.63v1.26h-2.63v5.06h3.27v1.26h-4.53V88.15h4.53v1.26Z"/><path d="M301.85,88.15v12.6h-1.29l-2.49-8.32v8.32h-1.26V88.15h1.26v0l2.52,8.31V88.15Z"/><path d="M308.35,89.41h-1.76v11.34h-1.26V89.41h-1.77V88.15h4.79Z"/></svg>