<?xml version="1.0" encoding="utf-8"?>
<!-- Generator: Adobe Illustrator 22.1.0, SVG Export Plug-In . SVG Version: 6.00 Build 0)  -->
<svg version="1.1" id="Layer_1" xmlns="http://www.w3.org/2000/svg" xmlns:xlink="http://www.w3.org/1999/xlink" x="0px" y="0px"
	 viewBox="0 0 846.1 846.1" style="enable-background:new 0 0 846.1 846.1;" xml:space="preserve">
<style type="text/css">
	.st0{fill:#FEE7D1;}
	.st1{fill:#050404;}
	.st2{fill:#23222B;}
	.st3{fill:#2A2932;}
	.st4{fill:#8AA683;}
</style>
<title>LuvLeeColored</title>
<path class="st0" d="M592.3,405c-1.4,3.8-4.5,6.4-7,9.4c-4.3,5.1-8.8,10-13.5,14.7c-14.1,13.9-29.9,25.9-47,35.9
	c-20.4,11.8-42.4,20.4-65.4,25.6c-8.9,1.9-18,3.3-27.1,4.3c-12.2,1.5-24.4,1.2-36.5,0.9c-7.5-0.4-15.1-1.2-22.5-2.5
	c-15.1-2.3-29.9-6.1-44.2-11.4c-14.9-5.4-29.2-12.4-42.6-20.8c-12.4-7.9-24.1-16.9-34.9-26.9c-11.9-11.1-22.6-23.4-32-36.7
	c-7-9.9-13.2-20.3-18.5-31.2c-9.3-19-15.9-39.3-19.7-60.1c-1.5-8.4-2.5-16.8-3.1-25.3c-0.7-9.7-0.7-19.3-0.3-29
	c0.6-12.6,2.4-25.1,5.1-37.4c4.8-21.3,12.5-41.9,23-61.1c6.5-11.8,14-23,22.4-33.5c5.2-6.5,10.8-12.7,16.7-18.6
	c8.7-8.7,18-16.7,27.9-23.9c11.7-8.5,24.2-15.8,37.3-22c17.6-8.3,36.2-14.4,55.4-18c9.6-1.8,19.4-3,29.2-3.6
	c8.1-0.5,16.1-0.6,24.2-0.3c8.2,0.4,16.4,1.3,24.5,2.5c14.8,2.2,29.4,5.8,43.5,10.9c15.7,5.6,30.6,12.9,44.7,21.7
	c17.9,11.2,34.2,24.8,48.4,40.5c12,13.1,22.3,27.5,30.9,43c6.9,12.3,12.6,25.2,17.1,38.5c3.8,11.5,6.7,23.4,8.8,35.3
	c3,16.5,3.7,33.1,3.1,49.8c-0.3,7.8-1.1,15.6-2.4,23.4c-2.4,15.1-6.1,30-11.1,44.5c-4.9-0.5-9.7-0.9-14.6-1.4
	c-18.2-1.9-36.2-0.6-53.7,5c-10,3.3-19.7,7.3-29.1,12c-1.5,0.7-2.2,0.7-2.7-1.1c-1-3.4-1.7-6.9-2.1-10.5c-1.2-10.9,0.5-21.6,2-32.2
	c2.1-13.9,3.1-27.8,1.2-41.8c-3.3-25.2-13.3-47.5-29.2-67.3c-16.8-20.8-36.9-38.7-59.5-52.9c-4.6-2.9-9.1-6-12.4-10.5
	c-1.9-2.5-2.5-5.1-1.3-8.2c1.4-3.8,2.8-7.6,4.1-11.4s2.6-7.7,2.5-11.8c-0.1-5.3-3.6-8.2-8.9-7.5c-4,0.6-7.8,2.4-10.7,5.3
	c-3.9,3.5-8.4,6.3-13.3,8.3c-7.9,3.3-16.3,4.8-24.7,6.5c-10.5,2.1-19.5-0.3-26.9-8.2c-0.5-0.5-1.1-1-1.7-1.5
	c-8.7-7.2-20.1-3.5-23.2,7.4c-1.2,4.1-0.9,8.2-0.1,12.3c1.1,6.1,3.3,11.9,5.1,17.8c2.4,8,1.9,15.5-2.8,22.6
	c-1.2,1.9-2.3,3.9-3.2,5.9c-3.6,7.9-2.3,14.7,3.9,20.8c3.7,3.5,8,6.2,12.7,8.2c11.9,5.3,24.1,9.7,35.8,15.6
	c11.1,5.7,22.5,9.5,35.6,4.9c7.3-2.5,12.1-6.4,15.2-12.9c3.5-7.4,4.1-15.3,3.4-23.4c-0.8-8.7-5.4-15.2-12-20.6
	c-2.6-2.1-5.7-3.3-8.9-1.4s-4.3,5.2-4.1,8.7c0.2,5.3,1.1,10.5,2.5,15.5c1.8,6,3.1,12.2,6.5,17.6l-0.5,0.5c-2.9-1.7-5.9-2.1-8.6,0.4
	c-3.8,3.4-3.6,7.5-1.3,11.8c-5.1,0.9-10.4,0.2-15.1-1.9c-16.7-7.1-33.3-14.5-49.9-21.9c-3-1.4-5.7-3.3-8-5.7
	c-3.7-3.9-4.7-8.2-2.4-13.1c1.3-2.8,2.9-5.5,4.4-8.2c3.5-6,4.6-13,3.3-19.8c-1-5.9-3.3-11.5-4.9-17.3c-1.2-4.5-2.2-9-1.5-13.6
	c0.5-3.6,3-6.7,6.4-7.9c3.4-1.4,5.8,0.3,8.1,2.3c0.9,0.8,1.8,1.6,2.7,2.5c6.3,6,13.7,9.3,22.6,9c5.5-0.1,10.8-1.3,16.1-2.4
	c12.6-2.5,24.4-6.7,34-15.7c1.2-1.1,2.6-1.9,4.2-2.3c4-1.1,4.9-0.2,4.2,4c-1.1,6.1-3.4,11.9-5.7,17.6c-2.5,6.5-1,11.9,3.5,16.8
	c4,4.4,9,7.7,13.9,10.9c21.1,13.5,39.9,30.3,55.8,49.7c19.7,24.3,30.1,52.1,29.6,83.6c-0.2,12-2.8,23.9-4,35.8
	c-1.1,10.9-1.2,21.8,2.4,32.3c0.7,1.9-0.3,2.2-1.5,2.8c-9.4,4.4-18.8,8.8-28.5,12.7c-6,2.4-12.1,4.6-18.4,7
	c0.7-8.8-2.4-13.4-10.4-15.1c-7.6-1.6-15.6-0.4-22.3,3.5c-5.3,2.9-6.5,6.6-4.7,12.3l-0.5,0.4c-1.5-1.4-2.6-3.2-3.2-5.2
	c-2.6-6.6-2.6-14,0.1-20.6c1.8-4.3,3.8-8.6,5.6-12.9c1.7-3.7,2.4-7.7,2.2-11.8c-0.6-7-6-10.9-12.9-9.2c-3.1,0.8-5.9,2.4-8.3,4.6
	c-4.1,3.8-7.7,8.2-10.6,13.1c-6.5,9.9-14.5,18.7-23.8,26.1c-10.7,8.7-22.7,14.5-36.7,15.5c-1.8,0.1-4,0.5-5-1s0.6-3.3,1.5-4.8
	c0.9-1.4,1.9-2.8,3-4.1c4.3-5,8.9-9.7,13.9-14c6.3-5.4,12-11.4,17.1-17.9c14.5-19.5,8.7-42.2-2.6-55c-9.2-10.4-22.4-11-32.7-1.8
	c-6.9,6.2-11.6,14-15.5,22.3c-4.8,9.8-9.2,19.8-13.9,30c-1.5-1.9-2.9-3.5-4.3-5.2c-11.7-13.5-21.4-28.2-27.8-45
	c-5.5-14.6-8.3-29.6-6.2-45.2c2.6-19.1,12.2-34.4,25.7-47.6c3.6-3.6,7.5-6.8,11.6-9.8c1.5-1.1,2-2.6,0.9-4.2s-2.6-1.6-4.2-0.5
	c-0.5,0.4-1.1,0.8-1.6,1.2c-6.7,5.1-12.8,10.8-18.2,17.2c-16.3,19.1-23.1,41.1-19.8,66.1c2.2,16.9,8.6,32.3,17.1,47
	c6.3,10.9,14.5,20.3,22.4,29.9c1.2,1.5,1.6,2.6,0.8,4.5c-1.4,3.3-2.5,6.7-3.2,10.2c-1.1,5.4-1.8,10.8,0.3,16.1
	c1.5,4.1,4.4,6.8,8.8,7.4s7.4-1.6,9.8-4.9c2.2-2.9,3.1-6.5,2.6-10.1c-1-7.7-5.1-13.8-9.5-19.8c-1-1.2-1.2-2.9-0.4-4.3
	c4.4-9.4,8.6-18.9,13.1-28.3c3.8-8,8.1-15.7,14.6-21.9c8.3-8,17.9-7.7,25.6,0.9c8.4,9.5,14.9,28.5,3.5,45.4
	c-4.8,7.2-11,13.1-17.3,18.8c-6.7,6-13.4,12.1-18.4,19.7c-2.1,3.3-4,6.9-1.7,10.8s6.5,3.7,10.4,3.5c10.3-0.6,20.2-3.7,29-9
	c14.9-8.9,26.8-21.1,36.4-35.5c3-4.5,6-9.1,10.5-12.4c2.5-1.8,5.4-4,8.5-2s2.4,5.6,1.6,8.8c-1.1,4.9-3.5,9.3-5.6,13.8
	c-2.8,6-4.1,12.5-3.6,19.1c1.2,17.6,15.8,27.8,32.7,22.8c5-1.5,9.6-4.1,14.6-5.7c17.4-5.4,34-12.8,50.4-20.6
	c1.6-0.8,2.3-0.8,3.2,0.9c3.1,5.4,7.1,10.2,12,14.1c9.3,7.8,20.3,12.3,31.7,15.8C576.9,401.6,584.6,403.1,592.3,405z"/>
<path class="st1" d="M592.3,405c-7.6-1.9-15.3-3.4-22.9-5.6c-11.5-3.5-22.4-8-31.7-15.8c-4.9-3.9-8.9-8.7-12-14.1
	c-0.9-1.7-1.6-1.6-3.2-0.9c-16.4,7.9-33,15.3-50.4,20.6c-5,1.6-9.6,4.2-14.6,5.7c-16.9,5-31.5-5.2-32.7-22.8
	c-0.5-6.6,0.7-13.2,3.6-19.1c2.1-4.5,4.5-8.9,5.6-13.8c0.7-3.1,1.6-6.7-1.6-8.8s-6,0.2-8.5,2c-4.5,3.3-7.5,7.9-10.5,12.4
	c-9.6,14.4-21.5,26.5-36.4,35.5c-8.8,5.3-18.7,8.4-29,9c-3.8,0.2-8,0.4-10.4-3.5s-0.5-7.5,1.7-10.8c5-7.6,11.7-13.7,18.4-19.7
	c6.4-5.8,12.5-11.7,17.3-18.8c11.4-16.9,4.9-36-3.5-45.4c-7.6-8.6-17.3-8.9-25.6-0.9c-6.5,6.2-10.8,14-14.6,21.9
	c-4.5,9.4-8.7,18.9-13.1,28.3c-0.8,1.4-0.6,3.1,0.4,4.3c4.4,6,8.5,12.2,9.5,19.8c0.5,3.6-0.4,7.2-2.6,10.1c-2.4,3.3-5.6,5.4-9.8,4.9
	s-7.3-3.3-8.8-7.4c-2-5.3-1.4-10.7-0.3-16.1c0.7-3.5,1.8-6.9,3.2-10.2c0.8-1.9,0.4-3-0.8-4.5c-7.9-9.6-16.1-19.1-22.4-29.9
	c-8.5-14.6-14.9-30-17.1-47c-3.3-25,3.5-46.9,19.8-66.1c5.4-6.4,11.5-12.1,18.2-17.2c0.5-0.4,1-0.8,1.6-1.2c1.5-1,3.1-1.1,4.2,0.5
	s0.6,3.1-0.9,4.2c-4.1,3-8,6.2-11.6,9.8c-13.5,13.2-23.1,28.5-25.7,47.6c-2.1,15.7,0.7,30.6,6.2,45.2c6.4,16.8,16,31.5,27.8,45
	c1.4,1.6,2.7,3.3,4.3,5.2c4.7-10.2,9.2-20.2,13.9-30c4-8.2,8.6-16,15.5-22.3c10.3-9.3,23.5-8.6,32.7,1.8c11.3,12.8,17.1,35.5,2.6,55
	c-5.1,6.5-10.8,12.5-17.1,17.9c-5,4.3-9.6,9-13.9,14c-1.1,1.3-2.1,2.7-3,4.1c-0.9,1.5-2.6,3.1-1.5,4.8s3.3,1.1,5,1
	c14-0.9,26-6.7,36.7-15.5c9.3-7.4,17.3-16.2,23.8-26.1c2.9-4.8,6.5-9.2,10.6-13.1c2.4-2.2,5.2-3.7,8.3-4.6
	c6.8-1.7,12.3,2.2,12.9,9.2c0.3,4-0.5,8.1-2.1,11.7c-1.8,4.3-3.8,8.5-5.6,12.9c-2.7,6.6-2.8,14-0.1,20.6c0.6,2,1.7,3.8,3.2,5.2
	l0.5,0.9c0.4-0.4,0.2-0.9,0.1-1.3c-1.8-5.7-0.6-9.4,4.7-12.3c6.7-3.9,14.7-5.2,22.3-3.5c8,1.7,11.1,6.2,10.4,15.1
	c6.2-2.4,12.4-4.6,18.4-7c9.6-3.9,19.1-8.2,28.5-12.7c1.2-0.6,2.2-0.9,1.5-2.8c-3.7-10.5-3.5-21.4-2.4-32.3c1.2-12,3.8-23.8,4-35.8
	c0.5-31.5-9.9-59.3-29.6-83.6c-15.8-19.4-34.6-36.1-55.7-49.6c-5-3.2-9.9-6.4-13.9-10.9c-4.5-4.9-6-10.3-3.5-16.8
	c2.3-5.7,4.6-11.5,5.7-17.6c0.8-4.2-0.2-5.1-4.2-4c-1.5,0.4-3,1.2-4.2,2.3c-9.6,9-21.4,13.2-34,15.7c-5.3,1.1-10.6,2.3-16.1,2.4
	c-8.9,0.2-16.3-3-22.6-9c-0.9-0.8-1.8-1.7-2.7-2.5c-2.4-2-4.8-3.7-8.1-2.3c-3.4,1.2-5.9,4.3-6.4,7.9c-0.8,4.7,0.2,9.1,1.5,13.6
	c1.5,5.8,3.9,11.4,4.9,17.3c1.3,6.8,0.2,13.8-3.3,19.8c-1.5,2.7-3.1,5.4-4.4,8.2c-2.4,4.9-1.3,9.3,2.4,13.1c2.3,2.4,5,4.4,8,5.7
	c16.6,7.4,33.2,14.8,49.9,21.9c4.7,2.1,10,2.8,15.1,1.9c-2.3-4.3-2.5-8.4,1.3-11.8c2.7-2.4,5.6-2.1,8.6-0.4c1.9,1.7,3.2,3.9,3.8,6.3
	c10-9.5,9.4-34.2-0.8-40.4c0.2,3.4-0.4,6.4-4.1,7.7c-1.3,0.5-0.5,1.5-0.3,2.1c1.3,6.6,3.3,13.1,6,19.3c0.6,1.4,1,2.7-0.1,3.9
	s-2.5,1.1-3.9,0.5c-3.4-5.4-4.7-11.6-6.5-17.6c-1.4-5.1-2.3-10.3-2.5-15.5c-0.2-3.6,0.8-6.9,4.1-8.7s6.3-0.7,8.9,1.4
	c6.6,5.3,11.2,11.9,12,20.6c0.8,8.1,0.2,16-3.4,23.4c-3.3,6.6-8,10.4-15.3,13c-13.1,4.6-24.5,0.8-35.6-4.9
	c-11.6-5.9-23.9-10.4-35.8-15.6c-4.7-2-9-4.7-12.7-8.2c-6.2-6-7.5-12.9-3.9-20.8c0.9-2,2-4,3.2-5.9c4.7-7.1,5.3-14.6,2.8-22.6
	c-1.8-5.9-4-11.7-5.1-17.8c-0.7-4.1-1-8.2,0.1-12.3c3.1-10.9,14.5-14.6,23.2-7.4c0.6,0.5,1.2,1,1.7,1.5c7.4,7.9,16.5,10.3,26.9,8.2
	c8.4-1.7,16.8-3.1,24.7-6.5c4.9-2,9.4-4.8,13.3-8.3c2.9-2.8,6.6-4.7,10.7-5.3c5.3-0.7,8.8,2.2,8.9,7.5c0.1,4.1-1.2,7.9-2.5,11.8
	s-2.6,7.6-4.1,11.4c-1.2,3-0.5,5.6,1.3,8.2c3.3,4.5,7.8,7.6,12.4,10.5c22.6,14.2,42.7,32.1,59.5,52.9c15.8,19.7,25.8,42,29.1,67.3
	c1.8,14,0.8,27.9-1.2,41.8c-1.6,10.7-3.2,21.4-2,32.2c0.4,3.5,1.1,7,2.1,10.5c0.5,1.9,1.2,1.8,2.7,1.1c9.4-4.7,19.1-8.7,29.1-12
	c17.5-5.5,35.5-6.9,53.7-5c4.9,0.5,9.7,0.9,14.6,1.4c7.4,1.5,15,2.4,22.3,4.4c7.8,2.1,15.5,4.6,22.2,9.2c5.3,3.6,9.3,8.2,9.9,14.9
	c0.3,4.2-0.7,8.5-2.9,12.1c-6,11-15.9,16.9-27.6,20.2c-13.8,3.9-28,3.9-42.2,2.6C603,406.4,597.7,405.6,592.3,405z M621.4,402.1
	c10.3-0.1,18.4-0.7,26.3-2.9c10.4-2.8,19.5-7.5,25.1-17.2c4.7-8.1,3.2-14.6-4.6-19.9c-5.5-3.9-11.8-6.1-18.2-7.9
	c-14.3-4-28.9-5.7-43.6-6.8c-10.5-0.8-21-0.3-31.4,1.5c-15.1,2.7-29.1,8.7-42.8,15.1c-2,1-2.4,1.7-1.1,3.6
	c6,9.3,14.3,15.9,24.3,20.4C577,397.6,600,401.3,621.4,402.1z M454.7,387.1c2.5-0.1,5-0.5,7.5-1.1c2.9-0.7,5.5-3.9,5.6-6.6
	c0.1-2.4-1.6-4.5-4.8-5.5c-7-2.1-13.5-0.7-19.8,2.6c-3.2,1.7-3.3,3.5-1,6.4C445.5,387.1,450.1,387.2,454.7,387.1L454.7,387.1z
	 M314.7,349c-2.3,6-3.9,11.7-3.4,17.8c0.4,4,2.8,7.2,5.5,7s5.5-3.8,5.6-7.5c0-0.5,0-0.9-0.1-1.4C321.5,359.1,318.3,354.2,314.7,349
	L314.7,349z M407.8,223.5c0.8-0.6,1.7-1.1,1.7-2.3c0.1-1.3-0.8-2.4-2-2.8c-1.2-0.3-1.7,1.1-1.8,2.1
	C405.7,221.9,406.5,222.8,407.8,223.5z"/>
<path class="st2" d="M363.6,705.1c-1.6,0.2-3.2-0.1-3.4-2.2s1.4-2.9,3.2-2.7c3.4,0.4,4.3-1.3,4.9-4.3c2.7-13.2,6.5-26.2,8.7-39.5
	c0.2-1.3,0.5-2.6,0.6-3.9c0.2-1.7,0.8-3.1,2.7-2.9s3.6,0.4,4,3c2.1,14.2,5,28.3,7.6,42.4c0.5,2.6,1.1,4.1,4.1,3.6
	c1.7-0.3,3.3,0.5,3.2,2.6c-0.1,1.9-1.5,2.5-3.2,2.3c-2.2-0.3-2.5,0.6-1.9,2.5c1.1,4.3,2,8.6,3.1,12.8c0.5,1.8,0,3.1-1.7,3.6
	c-1.8,0.5-2.7-0.6-3.1-2.3c-1.1-4.8-2.3-9.5-3.3-14.2c-0.4-1.6-0.9-2.3-2.8-2.1c-4.3,0.5-8.6,0.5-12.9,0.7c-1.5,0-2,0.4-2.4,2
	c-0.8,4.1-2,8.2-3,12.3c-0.4,1.7-1.2,3.1-3.3,2.6s-2-2.2-1.5-3.9c0.9-3.3,1.7-6.5,2.5-9.8C366.3,705.1,366.3,705.1,363.6,705.1z
	 M381.1,663.9c-0.1,0.1-0.3,0.3-0.3,0.4c-2.6,11.2-5.3,22.4-7.9,33.7c-0.3,1.4,0.4,1.5,1.5,1.5c3.6-0.2,7.3-0.5,11-0.5
	c2,0,2.5-0.4,2.1-2.5C385.2,685.5,383.2,674.7,381.1,663.9L381.1,663.9z"/>
<path class="st2" d="M410.5,611.4c0.3-5,2.4-9.8,4.8-14.5c1.5-2.8,4.1-5.5,4.3-8.4s-2.2-5.7-3.3-8.5c-1.4-3.1-2.2-6.4-2.4-9.8
	c-0.1-5.1,1.8-8.1,6-9.3c4.9-1.3,9.5,0.6,11.7,4.9c1.8,3.5,2.1,7.5,0.8,11.2c-1.2,3.6-3.4,6.7-5.4,9.8c-0.8,1.2-1.1,2.1-0.2,3.5
	c3.2,5.4,6.3,10.9,9.4,16.3c0.8,1.4,1.5,1.6,2.7,0.4c0.9-0.9,1.8-1.6,2.9-2.2c1-0.9,2.5-0.7,3.4,0.3l0.1,0.1c1,1.3,0.6,2.5-0.5,3.5
	c-1.6,1.3-4.1,2.4-4.4,4.2s1.5,3.7,2.3,5.5c0.4,0.9,0.6,1.8,0.7,2.7c0.1,1.2-0.7,2.3-1.9,2.5c-1,0.3-2.1-0.2-2.6-1.2
	c-1-1.7-1-4.8-2.9-5c-1.3-0.2-2.9,2.3-4.6,3.4c-5.2,3.3-10.7,3.2-16,0.4C411.6,619.3,410.5,615.8,410.5,611.4z M422.8,593.7
	c-3.3,5.8-6.5,11.2-7.2,17.6c-0.4,3.7,0.9,5.6,4.5,6.6c1.8,0.5,3.7,0.5,5.6,0.1c3-0.8,5.6-2.8,7.2-5.5c1.1-1.8-1.5-3.5-2.2-5.3
	c-0.5-1-1.1-2-1.7-2.9L422.8,593.7z M423.2,583.4c1.9-2.8,3.7-5.3,4.6-8.3c0.8-2.4,0.5-5.1-0.8-7.3c-1.4-2.4-3.7-2.4-6-1.8
	s-2.3,2.5-2.1,4.3C419.3,574.9,421.3,579,423.2,583.4z"/>
<path class="st2" d="M258.6,579.3c0.2,10.8,0.3,21.6-1.9,32.2c-0.5,2.3-1.2,4.5-2.2,6.7c-4.1,9.5-14.7,7.2-18.4,1.6
	c-3-4.5-4.2-9.6-4.8-14.8c-1.4-12.1-0.5-24.2,0.4-36.2c0.3-3.5,0.3-6.9,0.4-10.4c0-1.7,0.3-3.3,2.5-3.3s2.6,1.5,2.5,3.3
	c-0.5,9.6-1,19.3-1.4,28.9c-0.3,8-0.1,16,1.9,23.8c0.5,2.3,1.5,4.4,3,6.3c3,3.6,7.6,3.1,9.4-1.2c2.8-6.4,3.2-13.3,3.6-20.1
	c0.7-12.7-0.4-25.3-0.8-38c0-0.2,0-0.4-0.1-0.6c-0.2-1.8,0.4-3.3,2.4-3.4c2-0.1,2.4,1.3,2.5,3C257.9,564.4,258.3,571.8,258.6,579.3z
	"/>
<path class="st2" d="M457.5,679.2c1.4-2.3,2.6-4.3,3.8-6.3l11.7-19.2c0.3-0.5,0.6-1,0.9-1.4c1.1-1.4,2.4-2.3,4-1s1,2.6,0.1,4
	c-4.8,7-9.2,14.4-13.5,21.7c-1.7,2.9-4.3,5.8-4.7,8.9s3.3,5.5,4.9,8.3c4.4,7.8,9,15.6,13.5,23.3c0.9,1.5,0.7,2.8-0.6,3.7
	s-2.9,0.3-3.8-1.3c-3.1-5.3-6.1-10.5-9.1-15.8c-2.2-4.1-4.6-8-7.4-11.7c0,3.9,0,7.1,0,10.3c0,5.3,0,10.5,0.1,15.8
	c0,1.9-0.6,3.3-2.5,3.3s-2.5-1.6-2.5-3.4c0-8.6-0.1-17.3-0.2-25.9c-0.2-13-0.4-25.9-0.5-38.8c0-0.3,0-0.6,0-0.8c0-1.7,0.5-3,2.5-3
	s2.4,1.3,2.5,3c0.1,7,0.2,14.1,0.3,21.1C456.8,675.6,457,677.4,457.5,679.2z"/>
<path class="st2" d="M331.8,608.3c3.3-16.9,6.1-33.7,9.5-50.5c0.1-0.6,0.3-1.3,0.4-1.9c0.3-1.8,1.2-2.9,3-2.4s2.1,1.7,1.8,3.5
	c-2.2,11.6-4.4,23.2-6.5,34.9c-1.9,10.6-3.9,21.2-5,32c-0.2,1.5-0.9,2.8-2.7,2.7c-1.5-0.1-2.1-1.1-2.4-2.6
	c-5.1-22.2-8.7-44.7-13.8-67c-0.4-1.8-0.7-3.5,1.5-4.1s2.8,1.1,3.2,2.8c3.9,16.5,6.6,33.3,10.2,49.9
	C331.3,606.5,331.6,607.4,331.8,608.3z"/>
<path class="st2" d="M528.5,685c0-10.6,0-21.2,0-31.8c0-3.8,0.5-4.1,4.4-3.9c4.5,0.2,9,0,13.5-0.1c1.9,0,4.1-0.2,4,2.5
	s-2.3,2.4-4.2,2.5c-3.6,0-7.1,0.1-10.7,0c-1.7,0-2.1,0.6-2,2.1c0.2,9.7,0.3,19.3,0.4,29c0,1.8,0.7,2.2,2.3,2.1
	c1.5-0.1,3-0.2,4.5-0.2c1.2-0.1,2.3,0.9,2.3,2.2c0,0.1,0,0.1,0,0.2c0.1,1.3-0.8,2.4-2,2.5c-0.1,0-0.3,0-0.4,0h-0.8
	c-5.9,0.2-5.8,0.2-5.7,6.1c0.1,5,0.2,10,0.2,14.9c0,2,0.6,2.6,2.6,2.5c3.5-0.2,6.9-0.2,10.4-0.2c1.8,0,3.3,0.4,3.3,2.5
	c0,2-1.4,2.4-3.1,2.4c-5.1,0.2-10.3-0.3-15.4,0.8c-2.1,0.4-2.6-1.5-2.6-3.5c0-7-0.2-14.1-0.2-21.1c0-3.8,0-7.7,0-11.5H528.5z"/>
<path class="st2" d="M668.5,588.8c0-10.7,0-21.4,0-32.1c0-3.5,0.6-3.7,4.1-3.5c4.2,0.3,8.4-0.1,12.7-0.1c0.8,0,1.7,0,2.5,0
	c1.6,0.1,2.7,0.9,2.6,2.7c-0.1,1.6-1.2,2.2-2.7,2.2c-3.8,0-7.5,0.2-11.3,0.2c-2.1,0-3.1,0.4-3,2.9c0.3,9.4,0.3,18.8,0.3,28.2
	c0,1.6,0.4,2.2,2,2.1c1.5-0.1,3-0.2,4.5-0.1c1.7,0,2.7,0.9,2.7,2.6c0,1.3-1,2.4-2.3,2.4c-0.1,0-0.2,0-0.3,0s-0.2,0-0.3,0
	c-2,0.2-4.7-0.9-5.9,0.6c-0.9,1.3-0.2,3.8-0.2,5.8c0,4.9,0.2,9.8,0,14.7c0,2,0.7,2.3,2.4,2.3c3.6-0.1,7.1-0.1,10.7-0.1
	c1.7,0,3.1,0.4,3.2,2.3s-1.4,2.6-3.2,2.7c-5,0.2-10.1-0.4-15.1,0.6c-2.4,0.5-2.8-1.5-2.9-3.5c-0.1-8.1-0.2-16.1-0.3-24.2
	c0-2.8,0-5.6,0-8.5L668.5,588.8z"/>
<path class="st2" d="M586.9,588.8c0-10.9,0-21.8,0-32.7c0-3,0.8-3.3,3.8-3.1c3.9,0.3,7.9,0,11.8-0.1c1.1,0,2.3,0,3.4,0
	c1.7,0,3,0.7,2.9,2.6c-0.1,1.8-1.3,2.3-2.9,2.3c-3.8,0-7.7,0.2-11.5,0.2c-1.9,0-2.6,0.6-2.5,2.6c0.2,9.6,0.3,19.2,0.4,28.7
	c0,1.6,0.6,1.9,2,1.8s3-0.1,4.5-0.1s2.7,0.8,2.7,2.6s-1,2.3-2.5,2.4c-0.1,0-0.2,0-0.3,0c-2,0.2-4.8-0.9-5.9,0.6s-0.2,4-0.2,6
	c0,4.9,0.2,9.8,0.2,14.6c0,1.6,0.4,2.1,2,2.1c3.7-0.1,7.3-0.1,11-0.1c1.8,0,3.3,0.5,3.2,2.6c0,1.8-1.4,2.4-3.2,2.4
	c-5.1,0.2-10.3-0.3-15.4,0.6c-2.2,0.4-2.6-1.6-2.6-3.4c-0.1-10.2-0.2-20.5-0.4-30.7v-2L586.9,588.8z"/>
<path class="st2" d="M312.7,649.7c1.7-0.1,3.4-0.1,3.6,2.1s-1.3,2.7-3.1,2.8c-4.4,0.2-7.5,2.6-9.8,6.2c-3.9,6.2-5.3,13.2-5.5,20.4
	c-0.4,10.2,0.4,20.2,5,29.6c0.8,1.7,1.9,3.2,3.2,4.6c2.2,2.4,4.8,3.5,8.1,2.3c1.6-0.6,2.9-0.3,3.4,1.4c0.6,1.8-0.4,2.9-2,3.4
	c-4.3,1.6-9,0.5-12.2-2.7c-3.8-3.6-6-8.1-7.4-13c-4.1-14.1-4.6-28.3,0.3-42.3c1.3-4,3.6-7.7,6.7-10.5
	C305.5,651.3,309,649.8,312.7,649.7z"/>
<path class="st2" d="M153,589.5v-32.1c0-0.7,0-1.3,0-2c0.1-1.6,0.9-2.7,2.6-2.7s2.4,1.1,2.4,2.8c0,3.6,0.1,7.1,0.1,10.7
	c0.2,17.2,0.4,34.3,0.5,51.5c0,2.3,0.7,2.8,2.8,2.7c3.4-0.1,6.8,0,10.1,0c1.8,0,3.3,0.4,3.3,2.5s-1.5,2.5-3.3,2.5
	c-5.1,0-10.1-0.4-15.2,0.2c-1.8,0.2-2.9-0.8-2.8-2.7C154.1,611.9,153.3,600.7,153,589.5z"/>
<path class="st2" d="M505.4,589.3c0-10.9,0-21.8,0-32.7c0-1.9,0-3.9,2.5-3.8s2.5,2.1,2.5,4c0.1,9.7,0.1,19.3,0.2,29
	c0.1,10.9,0.3,21.8,0.4,32.7c0,1.6,0.4,2.1,2,2c3.6-0.1,7.1,0,10.7,0c1.8,0,3.3,0.4,3.4,2.5s-1.4,2.5-3.2,2.5
	c-5.1,0-10.1-0.4-15.2,0.2c-1.7,0.2-2.8-0.7-2.8-2.7C506.3,611.8,505.8,600.5,505.4,589.3z"/>
<path class="st3" d="M460.9,776.8c0.2,4.4-0.2,8.8-1.2,13.1c-0.3,1.3-0.8,2.5-1.4,3.7c-0.8,1.6-2,2.9-3.9,2.8s-2.9-1.3-3.6-2.8
	c-1.6-3.2-2.5-6.7-2.7-10.3c-0.6-6.6-0.9-13.1,1.5-19.5c1.4-3.7,3.4-4.5,7-3.4c2,0.6,2.5,2.1,3,3.7
	C460.7,768.2,461.1,772.5,460.9,776.8z M458.5,776.8c0.1-3.3-0.1-6.7-0.7-10c-0.3-2-0.9-4.1-3.3-4.3s-2.8,2.3-3.2,4
	c-1.5,6.4-1.7,13.1-0.3,19.5c0.3,2.1,0.9,4.2,1.9,6.2c0.4,0.7,0.7,1.7,1.7,1.6s1.4-0.9,1.7-1.7c0.5-1,0.8-2.1,1.1-3.2
	C458.4,784.9,458.7,780.9,458.5,776.8L458.5,776.8z"/>
<path class="st3" d="M507.6,776.9c0.2,4.1-0.2,8.3-1.2,12.3c-0.3,1.2-0.7,2.3-1.1,3.5c-0.8,1.9-1.9,3.6-4.2,3.6s-3.3-1.7-4-3.5
	c-2.4-5.6-2.8-11.6-2.7-17.7c0.1-3.8,0.3-7.7,1.9-11.3c0.9-2.2,2.1-4.1,4.9-4c3.1,0.1,4.5,1.3,5.3,4.8
	C507.4,768.7,507.8,772.8,507.6,776.9z M505.3,777.1c0-3.5-0.3-6.9-0.8-10.4c-0.3-2.1-1-4.1-3.3-4.3s-2.6,2.3-3.1,4
	c-1.5,5.1-1.4,10.4-0.9,15.7c0.3,3.5,0.8,7.1,2.6,10.3c1,1.8,2.1,1.7,3.1,0c0.5-0.8,0.8-1.7,1.1-2.6
	C505.1,785.7,505.2,781.4,505.3,777.1z"/>
<path class="st3" d="M337.3,776.4c0-4.7,0-9.4,0-14.1c0-1.7,0.2-2.6,2.4-2.3s4.3-0.1,6.4-0.1c0.9,0,2.1-0.1,2,1.3
	c-0.1,1.1-1,1.2-1.9,1.2h-0.8c-5.7,0.1-5.8,0.1-5.7,5.7c0,3,0.2,6,0.2,9c0,1.3,0.2,2.2,1.9,1.9c1.1-0.2,2.6-0.4,2.6,1.2
	c0,1.4-1.4,1.3-2.4,1.2c-1.7-0.2-2.1,0.7-1.9,2.1c0.1,1,0,2.1,0,3.1c0.1,2-0.6,4.6,0.4,6s3.6,0.2,5.5,0.4c1,0.1,2.1,0,2,1.3
	s-1.2,1.2-2.1,1.2c-0.8,0.1-1.7,0.1-2.5,0c-1.8-0.3-4.2,1.2-5.3-0.2c-0.9-1.3-0.6-3.6-0.6-5.4c-0.1-4.5,0-9,0-13.5L337.3,776.4z"/>
<path class="st3" d="M362.6,767.7c0.2,2.3,0.9,4.6,2.3,6.6c2.6,4.4,5.3,8.9,6.1,14.1c0.4,1.7,0.3,3.6-0.4,5.3
	c-0.9,2.2-3.1,3.5-5.4,3.3c-2.4-0.2-4.5-1.8-5.2-4.1c-0.4-0.6-0.2-1.4,0.4-1.7l0,0c0.9-0.5,1.4,0,1.8,0.8c1,2,2.5,3.3,4.7,2.3
	c2-0.9,2-2.9,1.7-4.9c-0.6-3.7-1.9-7.3-3.9-10.4c-1.6-2.3-2.8-4.8-3.8-7.5c-0.7-1.7-0.9-3.7-0.4-5.5c0.8-2.6,2.2-4.6,5.2-4.8
	c2.9-0.3,5.7,1.3,6.8,4c0.3,0.7,0.8,1.4-0.1,2s-1.6,0.2-2-0.7l-0.3-0.5c-0.9-1.9-3.1-2.8-5-2C363,764.3,362.7,766.1,362.6,767.7z"/>
<path class="st3" d="M478,796.5c-5.7-0.1-5.7-0.1-3.6-5.6c2.7-7.2,5.6-14.3,6.5-22c0.2-1,0.2-2,0-3.1c-0.7-3.2-3-4.1-5.5-2.1
	c-0.8,0.6-1.5,1.9-2.5,0.5c-0.8-1,0.2-1.9,1-2.6c2.2-2.1,5.6-2,7.7,0.2c0.8,0.8,1.3,1.8,1.4,2.8c0.9,3.9-0.1,7.6-1.1,11.3
	c-1.5,5.4-3.3,10.7-5.4,15.9c-0.6,1.5-0.6,2.3,1.3,2.1c1.1,0,2.2,0,3.4,0.1c0.9,0,2.1-0.2,2.1,1.2c0,1.6-1.4,1.2-2.3,1.2
	S479,796.5,478,796.5z"/>
<path class="st3" d="M431.4,796.5c-5.8-0.1-5.8-0.1-3.7-5.6c2.6-6.8,5.3-13.6,6.4-20.9c0.3-1.4,0.3-2.8,0.1-4.2
	c-0.6-3.2-3-4.1-5.5-2.2c-0.8,0.6-1.5,2-2.5,0.7s0.3-2.1,1.1-2.7c1.7-1.4,4.1-1.7,6.1-0.9c2.2,0.9,2.9,2.8,3.1,5
	c0.2,3.7-0.3,7.3-1.4,10.8c-1.5,5.2-3.2,10.4-5.3,15.4c-0.7,1.7-0.4,2.4,1.5,2.2c1.3,0,2.6,0,3.9,0.1c0.7,0,1.3,0.3,1.4,1.1
	s-0.5,1.3-1.4,1.3L431.4,796.5L431.4,796.5z"/>
<path class="st2" d="M386.7,779.3c0-4.9-0.1-9.8,0-14.6c0.1-1.9-0.7-2.3-2.3-2.1c-1.1,0.1-2.3,0-3.4,0c-0.7,0.1-1.3-0.4-1.4-1.1l0,0
	c-0.1-0.9,0.5-1.2,1.2-1.2c4.7,0,9.4,0.1,14.1,0.2c0.6,0,1,0.4,1,1c0,0.1,0,0.1,0,0.2c0,0.6-0.5,1.1-1.1,1.1c-0.5,0-0.9,0-1.4,0
	c-4.3,0.1-4.3,0.1-4.2,4.2c0.1,8.9,0.2,17.8,0.3,26.8c0,1,0.4,2.7-1.2,2.7s-1.3-1.6-1.3-2.6c0-4.8,0-9.6,0-14.4L386.7,779.3z"/>
<path class="st4" d="M621.4,402.1c-21.5-0.8-44.4-4.5-66.1-14.2c-9.9-4.4-18.3-11-24.3-20.4c-1.3-2-0.9-2.7,1.1-3.6
	c13.8-6.5,27.7-12.5,42.8-15.1c10.4-1.8,21-2.3,31.5-1.5c14.7,1.1,29.3,2.8,43.6,6.8c6.4,1.8,12.7,4.1,18.2,7.9
	c7.7,5.4,9.2,11.8,4.6,19.9c-5.6,9.7-14.7,14.4-25.1,17.2C639.8,401.4,631.7,402,621.4,402.1z"/>
<path class="st0" d="M454.7,387.2c-4.6,0-9.3-0.1-12.5-4.2c-2.3-2.9-2.1-4.7,1-6.4c6.2-3.3,12.8-4.7,19.8-2.6c3.2,1,4.9,3,4.8,5.5
	c-0.1,2.8-2.7,5.9-5.6,6.6C459.8,386.7,457.2,387,454.7,387.2z"/>
<path class="st0" d="M412.1,213.5c1.4,0.6,2.7,0.8,3.9-0.5s0.7-2.6,0.1-3.9c-2.7-6.2-4.7-12.7-6-19.3c-0.1-0.7-1-1.7,0.3-2.1
	c3.7-1.3,4.3-4.3,4.1-7.7c10.2,6.2,10.8,30.9,0.8,40.4c-0.6-2.4-1.9-4.7-3.8-6.3L412.1,213.5z"/>
<path class="st0" d="M314.7,349.1c3.6,5.1,6.7,10.1,7.8,16c0.1,0.5,0.1,0.9,0.1,1.4c-0.1,3.7-2.9,7.3-5.6,7.5s-5.2-3-5.5-7
	C310.8,360.8,312.4,355.1,314.7,349.1z"/>
<path class="st0" d="M407.8,223.5c-1.2-0.7-2.1-1.6-2-3c0.1-1,0.5-2.4,1.8-2.1c1.2,0.3,2.1,1.5,2,2.8
	C409.5,222.4,408.6,223,407.8,223.5z"/>
<path class="st0" d="M435.9,383.9c0.1,0.4,0.3,0.9-0.1,1.3l-0.5-0.9L435.9,383.9z"/>
</svg>
